<svg height="512pt" viewBox="0 -104 512.17772 512" width="512pt" xmlns="http://www.w3.org/2000/svg"><g fill="#acabb1"><path d="m104.101562 296.089844c53.019532 0 96-42.980469 96-96h-104l44.410157-88.800782c-35.894531-14.742187-77.132813-6.429687-104.511719 21.066407-27.375 27.5-35.507812 68.773437-20.605469 104.601562 14.902344 35.824219 49.90625 59.160157 88.707031 59.132813zm0-72"/><path d="m371.695312 111.289062c-47.8125 19.566407-71.746093 73.304688-54.308593 121.929688 17.4375 48.628906 70.066406 74.910156 119.417969 59.632812 49.347656-15.277343 77.925781-66.695312 64.839843-116.667968-13.082031-49.976563-63.191406-80.792969-113.695312-69.925782l28.152343 93.832032zm0 0"/><path d="m200.101562 200.089844c-.011718-38.949219-23.554687-74.03125-59.589843-88.800782l-44.410157 88.800782zm0 0"/><path d="m416.101562 200.089844-28.152343-93.839844c-5.558594 1.1875-10.996094 2.871094-16.253907 5.03125zm0 0"/></g><path d="m408.101562 96.089844c-11.019531.007812-21.96875 1.78125-32.429687 5.246094l-42.625-85.246094h67.054687c4.417969 0 8 3.582031 8 8 0 4.417968-3.582031 8-8 8h-32c-4.417968 0-8 3.582031-8 8 0 4.417968 3.582032 8 8 8h32c13.253907 0 24-10.746094 24-24s-10.746093-24.0000002-24-24.0000002h-80c-2.78125-.015625-5.367187 1.4140622-6.835937 3.7734372s-1.605469 5.316407-.363281 7.800781l10.253906 20.425782h-142.109375l-8-16h43.054687c4.417969 0 8-3.582032 8-8 0-4.417969-3.582031-8.0000002-8-8.0000002h-80c-4.417968 0-8 3.5820312-8 8.0000002 0 4.417968 3.582032 8 8 8h19.054688l12 24-30.621094 61.246094c-42.132812-13.875-88.433594.5-115.296875 35.800781s-28.378906 83.753906-3.773437 120.664062c24.601562 36.910157 69.910156 54.152344 112.832031 42.9375 42.917969-11.214843 73.996094-48.421875 77.398437-92.648437h48.40625c.648438-.003906 1.292969-.085938 1.921876-.25l.167968-.039063c.183594-.046875.34375-.152343.527344-.207031.324219-.097656.640625-.210938.953125-.34375.046875 0 .070313-.066406.109375-.089844.039062-.023437.226562-.109375.328125-.175781.234375-.148437.457031-.3125.671875-.488281.34375-.242188.671875-.507813.976562-.800782l.3125-.316406c.121094-.136718.191407-.289062.304688-.433594.109375-.144531.375-.410156.527344-.648437.0625-.113281.09375-.238281.152344-.351563.054687-.113281.144531-.175781.199218-.28125l72.847656-145.6875 24.800782 49.601563c-46.78125 24.050781-68.175782 79.292969-49.800782 128.578125 18.375 49.289062 70.707032 77.042969 121.816407 64.605469 51.109375-12.441407 84.835937-61.140625 78.503906-113.359375s-50.71875-91.449219-103.320313-91.3125zm-152 86.109375-67.054687-134.109375h134.109375zm-152 105.890625c-34.53125.046875-65.902343-20.105469-80.210937-51.535156-14.3125-31.429688-8.914063-68.320313 13.792969-94.335938 22.710937-26.015625 58.539062-36.34375 91.609375-26.410156l-40.351563 80.703125c-1.238281 2.480469-1.105468 5.425781.351563 7.785156 1.460937 2.359375 4.035156 3.792969 6.808593 3.792969h95.59375c-4.171874 45.277344-42.125 79.9375-87.59375 80zm40.074219-166.25c26.8125 13.746094 44.742188 40.246094 47.519531 70.25h-82.648437zm63.519531 70.25c-2.8125-36.074219-24.167968-68.089844-56.394531-84.542969l24.800781-49.601563 67.054688 134.144532zm200.40625 96c-40.65625.03125-76.03125-27.808594-85.558593-67.332032-9.527344-39.523437 9.28125-80.425781 45.488281-98.917968l40.910156 81.824218c1.976563 3.957032 6.78125 5.558594 10.738282 3.585938 3.953124-1.976562 5.558593-6.78125 3.582031-10.738281l-40.351563-80.703125c33.074219-9.933594 68.898438.394531 91.609375 26.410156 22.710938 26.015625 28.105469 62.90625 13.792969 94.335938-14.308594 31.429687-45.675781 51.582031-80.210938 51.535156zm0 0" fill="#231f20"/><path d="m88.101562 224.089844c0 4.417968 3.582032 8 8 8h8c4.417969 0 8-3.582032 8-8 0-4.417969-3.582031-8-8-8h-8c-4.417968 0-8 3.582031-8 8zm0 0" fill="#231f20"/><path d="m128.101562 232.089844h8c4.417969 0 8-3.582032 8-8 0-4.417969-3.582031-8-8-8h-8c-4.417968 0-8 3.582031-8 8 0 4.417968 3.582032 8 8 8zm0 0" fill="#231f20"/><path d="m160.101562 232.089844h8c4.417969 0 8-3.582032 8-8 0-4.417969-3.582031-8-8-8h-8c-4.417968 0-8 3.582031-8 8 0 4.417968 3.582032 8 8 8zm0 0" fill="#231f20"/></svg>